<svg width="104" height="25" viewBox="0 0 104 25" fill="none" xmlns="http://www.w3.org/2000/svg">
<rect x="-7.62939e-05" y="0.0478516" width="24" height="24" rx="3.6" fill="#252424"/>
<path d="M16.495 16.5635H7.42119V19.3427H16.495V16.5635Z" fill="#41B792"/>
<path d="M4.50871 4.68799H8.06465L11.7757 14.6361H8.49277L4.50871 4.68799Z" fill="white"/>
<path d="M19.4263 4.68799H15.8703L12.1592 14.6361H15.4422L19.4263 4.68799Z" fill="white"/>
<path d="M29.9644 6.41149L33.419 16.2069H33.5553L37.0099 6.41149H38.4871L34.2144 18.0479H32.7599L28.4871 6.41149H29.9644ZM40.2996 18.0479V6.41149H47.3224V7.66149H41.7087V11.5933H46.9587V12.8433H41.7087V16.7979H47.4133V18.0479H40.2996ZM54.8394 18.0479H53.3621L57.6349 6.41149H59.0894L63.3621 18.0479H61.8849L58.4076 8.2524H58.3167L54.8394 18.0479ZM55.3849 13.5024H61.3394V14.7524H55.3849V13.5024ZM66.3337 6.41149V18.0479H64.9928V6.41149H66.3337ZM72.5852 9.32058V10.4569H68.0624V9.32058H72.5852ZM69.3806 7.22967H70.7215V15.5479C70.7215 15.9266 70.7764 16.2107 70.8863 16.4001C70.9999 16.5857 71.1439 16.7107 71.3181 16.7751C71.4961 16.8357 71.6836 16.866 71.8806 16.866C72.0283 16.866 72.1495 16.8585 72.2442 16.8433C72.3389 16.8244 72.4147 16.8092 72.4715 16.7979L72.7442 18.0024C72.6533 18.0365 72.5264 18.0706 72.3636 18.1047C72.2007 18.1425 71.9942 18.1615 71.7442 18.1615C71.3655 18.1615 70.9942 18.08 70.6306 17.9172C70.2708 17.7543 69.9715 17.5062 69.7329 17.1729C69.498 16.8395 69.3806 16.4191 69.3806 15.9115V7.22967ZM78.0539 18.2297C77.2357 18.2297 76.5312 18.0365 75.9403 17.6501C75.3494 17.2638 74.8948 16.7316 74.5766 16.0535C74.2584 15.3755 74.0994 14.6009 74.0994 13.7297C74.0994 12.8433 74.2622 12.0611 74.588 11.3831C74.9175 10.7013 75.3759 10.1691 75.963 9.78649C76.5539 9.40012 77.2433 9.20694 78.0312 9.20694C78.6448 9.20694 79.1978 9.32058 79.6903 9.54785C80.1827 9.77512 80.5861 10.0933 80.9005 10.5024C81.2149 10.9115 81.41 11.3888 81.4857 11.9342H80.1448C80.0425 11.5365 79.8153 11.1842 79.463 10.8774C79.1145 10.5668 78.6448 10.4115 78.0539 10.4115C77.5312 10.4115 77.0728 10.5479 76.6789 10.8206C76.2887 11.0895 75.9838 11.4702 75.7641 11.9626C75.5482 12.4513 75.4403 13.0251 75.4403 13.6842C75.4403 14.3585 75.5463 14.9456 75.7584 15.4456C75.9744 15.9456 76.2774 16.3338 76.6675 16.6104C77.0615 16.8869 77.5236 17.0251 78.0539 17.0251C78.4024 17.0251 78.7187 16.9645 79.0028 16.8433C79.2869 16.7221 79.5274 16.5479 79.7244 16.3206C79.9213 16.0933 80.0615 15.8206 80.1448 15.5024H81.4857C81.41 16.0175 81.2225 16.4816 80.9232 16.8944C80.6278 17.3035 80.2357 17.6293 79.7471 17.8717C79.2622 18.1104 78.6978 18.2297 78.0539 18.2297ZM86.9914 18.2297C86.2035 18.2297 85.5122 18.0422 84.9175 17.6672C84.3266 17.2922 83.8645 16.7675 83.5312 16.0933C83.2016 15.4191 83.0369 14.6312 83.0369 13.7297C83.0369 12.8206 83.2016 12.027 83.5312 11.349C83.8645 10.671 84.3266 10.1444 84.9175 9.76944C85.5122 9.39444 86.2035 9.20694 86.9914 9.20694C87.7793 9.20694 88.4687 9.39444 89.0596 9.76944C89.6543 10.1444 90.1164 10.671 90.4459 11.349C90.7793 12.027 90.9459 12.8206 90.9459 13.7297C90.9459 14.6312 90.7793 15.4191 90.4459 16.0933C90.1164 16.7675 89.6543 17.2922 89.0596 17.6672C88.4687 18.0422 87.7793 18.2297 86.9914 18.2297ZM86.9914 17.0251C87.5899 17.0251 88.0823 16.8717 88.4687 16.5649C88.855 16.2581 89.141 15.8547 89.3266 15.3547C89.5122 14.8547 89.605 14.313 89.605 13.7297C89.605 13.1463 89.5122 12.6028 89.3266 12.099C89.141 11.5952 88.855 11.188 88.4687 10.8774C88.0823 10.5668 87.5899 10.4115 86.9914 10.4115C86.3929 10.4115 85.9005 10.5668 85.5141 10.8774C85.1278 11.188 84.8418 11.5952 84.6562 12.099C84.4706 12.6028 84.3778 13.1463 84.3778 13.7297C84.3778 14.313 84.4706 14.8547 84.6562 15.3547C84.8418 15.8547 85.1278 16.2581 85.5141 16.5649C85.9005 16.8717 86.3929 17.0251 86.9914 17.0251ZM92.9928 18.0479V9.32058H94.3337V18.0479H92.9928ZM93.6746 7.86603C93.4133 7.86603 93.1879 7.77702 92.9985 7.59899C92.8129 7.42096 92.7201 7.20694 92.7201 6.95694C92.7201 6.70694 92.8129 6.49293 92.9985 6.3149C93.1879 6.13687 93.4133 6.04785 93.6746 6.04785C93.936 6.04785 94.1595 6.13687 94.3451 6.3149C94.5345 6.49293 94.6292 6.70694 94.6292 6.95694C94.6292 7.20694 94.5345 7.42096 94.3451 7.59899C94.1595 7.77702 93.936 7.86603 93.6746 7.86603ZM98.1306 12.7979V18.0479H96.7897V9.32058H98.0852V10.6842H98.1988C98.4033 10.241 98.7139 9.88497 99.1306 9.61603C99.5473 9.34331 100.085 9.20694 100.744 9.20694C101.335 9.20694 101.852 9.32815 102.295 9.57058C102.739 9.80922 103.083 10.1729 103.329 10.6615C103.576 11.1463 103.699 11.76 103.699 12.5024V18.0479H102.358V12.5933C102.358 11.9077 102.18 11.3736 101.824 10.991C101.468 10.6047 100.979 10.4115 100.358 10.4115C99.9298 10.4115 99.5473 10.5043 99.2102 10.6899C98.8768 10.8755 98.6136 11.1463 98.4204 11.5024C98.2272 11.8585 98.1306 12.2903 98.1306 12.7979Z" fill="#929292"/>
</svg>
